# xmcd
#
# Track frame offsets:
#   150
#   17518
#   35186
#   50966
#   67181
#   85442
#   105709
#   123069
#   141078
#   160320
#   175665
#   188494
#   202887
#   217079
#   232494
#   252094
#   271471
#   287546
#   302397
#
# Disc length: 4261 seconds
#
# Revision: 0
# Processed by: cddbd v1.5.1PL0 Copyright (c) Steve Scherf et al.
# Submitted via: Media_Universe 3.0
#
DISCID=1910a313
DTITLE=Reba McEntire - If You See Him and Mixed
DYEAR=1900
DGENRE=Country
TTITLE0=If You See Him
TTITLE1=One Honest Heart
TTITLE2=I Wouldnt Know
TTITLE3=I'll Give You Something To Miss
TTITLE4=Invisible
TTITLE5=Up And Flying
TTITLE6=Forever Love
TTITLE7=Face To Face
TTITLE8=Heart Rush
TTITLE9=Lonely Alone
TTITLE10=Wrong Night
TTITLE11=All This Time
TTITLE12=I'm A Survivor
TTITLE13=You Keep Me Hanging On
TTITLE14=Does He Love You
TTITLE15=Since I Fell For You
TTITLE16=I'm The Fool In Love With The Fool
TTITLE17=They Asked About You
TTITLE18=I'll Take Your Heart
EXTD=
EXTT0=
EXTT1=
EXTT2=
EXTT3=
EXTT4=
EXTT5=
EXTT6=
EXTT7=
EXTT8=
EXTT9=
EXTT10=
EXTT11=
EXTT12=
EXTT13=
EXTT14=
EXTT15=
EXTT16=
EXTT17=
EXTT18=
PLAYORDER=
